# xmcd CD database file
#
# Track frame offsets:
#	150
#	17905
#	34582
#	52340
#
# Disc length: 918 seconds
#
# Revision: 0
# Processed by: cddbd v1.5.1PL0 Copyright (c) Steve Scherf et al.
# Submitted via: CDex 1.51
#
DISCID=30039404
DTITLE=内田　有紀 - Da.i.su.ki.
DYEAR=1997
DGENRE=JPop
TTITLE0=Da.i.su.ki.
TTITLE1=Uchida no Rock'n' Roll
TTITLE2=Da.i.su.ki. (Original Karaoke)
TTITLE3=Uchida no Rock'n' Roll(Original Karaoke)
EXTD=YEAR: 1997
EXTT0=
EXTT1=
EXTT2=
EXTT3=
PLAYORDER=
